<?xml version="1.0" encoding="UTF-8"?><svg id="Layer_2" xmlns="http://www.w3.org/2000/svg" viewBox="0 0 1920 1920">
    <defs>
        <style>
            .cls-1 {
                fill: #fff;
            }

            .cls-2 {
                fill: #efac9c;
            }

            .cls-3 {
                fill: #b4b4ba;
            }

            .cls-4 {
                fill: #d8d8d8;
            }

            .cls-5,
            .cls-6,
            .cls-7,
            .cls-8,
            .cls-9,
            .cls-10,
            .cls-11,
            .cls-12,
            .cls-13,
            .cls-14 {
                stroke-linejoin: round;
                stroke-width: 2.3px;
            }

            .cls-5,
            .cls-6,
            .cls-7,
            .cls-8,
            .cls-10,
            .cls-11,
            .cls-13,
            .cls-14 {
                stroke-linecap: square;
            }

            .cls-5,
            .cls-8,
            .cls-9,
            .cls-11,
            .cls-12,
            .cls-13 {
                stroke: #3939bf;
            }

            .cls-5,
            .cls-9 {
                fill: #d1bef6;
            }

            .cls-6 {
                fill: #5e7ab5;
            }

            .cls-6,
            .cls-7,
            .cls-10,
            .cls-14 {
                stroke: #2121a8;
            }

            .cls-15 {
                stroke: #282623;
            }

            .cls-15,
            .cls-16 {
                fill: none;
                stroke-linecap: round;
                stroke-miterlimit: 10;
                stroke-width: 5.55px;
            }

            .cls-17 {
                fill: #282623;
            }

            .cls-18 {
                fill: #333131;
            }

            .cls-7 {
                fill: #bf8a78;
            }

            .cls-8 {
                fill: #c3fbf8;
            }

            .cls-19 {
                fill: #d99280;
            }

            .cls-10 {
                fill: #8e77ba;
            }

            .cls-11 {
                fill: #99b6f3;
            }

            .cls-12,
            .cls-13 {
                fill: #f2d4cb;
            }

            .cls-20 {
                fill: #51504f;
            }

            .cls-14 {
                fill: #7cc2bd;
            }

            .cls-16 {
                stroke: #51504f;
            }
        </style>
    </defs>
    <g>
        <g>
            <path class="cls-1"
                d="M752.46,882.56c-15.99,18.59-39.68,44.56-78.17,76.35-12.72,10.5-24.7,18.9-35.74,25.54-18.65,11.27-34.65,17.55-47.15,20.63-11.29,2.79-19.75,2.97-24.76,1.82-4.89-1.11-9.87-2.85-14.73-5.17-16.42-7.76-31.57-21.94-37.69-40.21-7.25-21.67-.63-45.94,17.16-62.54,1.17-1.1,2.39-2.16,3.65-3.18,3.85-3.1,8.13-5.88,12.83-8.24,6.45-2.21,12.26-4.33,17.55-6.41,9.3-3.65,16.96-7.15,23.61-10.62,14.86-7.8,24.66-15.57,36.32-24.95,27.72-22.34,53.25-46.77,73.23-62.51,1.83-1.44,3.6-2.81,5.34-4.09,14.04-10.43,24.86-15.52,31.09-10.86,2.6,1.95,4.27,4.6,5.33,7.22,1.23,3.07,1.65,6.13,1.78,8.05,10.09-4.38,17.06-8.88,26.42,.94,7.41,7.76,4.93,16.27-.62,27.12,.43-.41,9.68-9.54,17.54-2.97,15.63,13.07-6.57,43.39-32.99,74.09Z" />
            <path class="cls-2"
                d="M731.82,843.95c-5.39,5.44-12.14,8.57-18.58,9.17-5.89,.56-11.5-1-15.59-4.81-4.91-4.59-6.54-11.43-5.12-18.4,.42-2.06,1.12-4.12,2.06-6.14,1.45-3.1,3.53-6.09,6.19-8.77,8.44-8.54,20.25-11.38,28.95-7.71,1.92,.79,3.67,1.92,5.22,3.35,8.57,8,7.15,22.92-3.14,33.32Z" />
        </g>
        <path class="cls-1"
            d="M274.91,1193.6c-29.3,6-53.65,6.42-70.82,5.55-27.89-1.4-46.91-20.28-48.61-54.16-.36-7.3-.68-13.83-.87-19.64-.69-20.78,.25-32.45,6.43-38.69,3.56-3.6,9.83-7.71,37.5-8.33,17.18-.39,41.54,.58,70.82,6.94,1.24,24.07,2.47,48.15,3.71,72.21,.61,12.04,1.24,24.07,1.85,36.11Z" />
        <path class="cls-3"
            d="M274.91,1193.6c-29.3,6-53.65,6.42-70.82,5.55-27.89-1.4-46.91-20.28-48.61-54.16-.36-7.3-.68-13.83-.87-19.64,9.72,8.17,22.9,17.08,39.76,23.8,32.55,12.97,62.1,11.04,78.7,8.33,.61,12.04,1.24,24.07,1.85,36.11Z" />
        <path class="cls-1"
            d="M709.09,1296.69c-5.94,12.69-17.11,18.6-39.41,29.55-16.71,8.21-30.98,12.86-34.01,13.68-14.98,4.03-45.69-7.85-81.77-33.59-6.72-4.79-13.64-10.08-20.66-15.83-4.24-3.46-8.51-7.08-12.8-10.87-.69-.61-1.4-1.24-2.1-1.87-15.47-13.82-31.29-29.77-46.77-47.74-4.61-5.35-9.18-10.87-13.72-16.57-8.93-11.23-17.68-23.15-26.11-35.72-7.18-10.72-14.14-21.91-20.78-33.57-4.19-7.35-8.26-14.89-12.18-22.61,19.22-31.73,51.51-54.79,89.66-61.37,10.75-1.85,20.29-2.06,28.64-1.17,8.97,.94,16.55,3.14,22.8,5.93,2.85,1.26,5.4,2.64,7.69,4.08,5.19,3.25,8.96,6.78,11.3,9.83,.11,.14,.22,.28,.31,.42,2.79,3.76,3.39,6.72,1.81,7.39,5.74,.82,11.96,3.57,18.26,8.8,4.18,3.46,8.42,8.01,12.54,13.82,2.32,3.24,4.61,6.85,6.85,10.89,1.67,2.99,3.29,6.19,4.89,9.64,6.35,13.64,12.19,31.01,17.03,52.77,8.03,36.22-3.96,60.94,9.14,67.66,10.05,5.18,29.51-.46,52.42,10.28,21.78,10.22,31.7,26.12,26.98,36.18Z" />
        <path class="cls-3" d="M441.83,1212.16c.11,.12,.21,.25,.32,.37-.71-.12-.9-.24-.32-.37Z" />
        <path class="cls-3"
            d="M591.79,1109.28c-12.47,63.99-41.63,83.43-58.3,102.88-12.55,14.65-14.71,45.2-15.15,65.59-15.47-13.82-31.29-29.77-46.77-47.74-4.61-5.35-9.18-10.87-13.72-16.57-8.93-11.23-17.68-23.15-26.11-35.72-7.18-10.72-14.14-21.91-20.78-33.57,.44-.39,.89-.76,1.33-1.15,45.06-39.18,79.06-65.95,104.78-83.99,3.36-2.37,6.58-4.58,9.67-6.65,5.19,3.25,8.96,6.78,11.3,9.83,.75,.97,1.36,1.9,1.83,2.75,1.42,2.61,19.03,14.21,19.3,14.33,2.79,3.76,3.39,6.72,1.81,7.39,5.74,.82,11.96,3.57,18.26,8.8,4.18,3.46,8.42,8.01,12.54,13.82Z" />
        <path class="cls-1"
            d="M579.25,1095.47c-1.42,22.59-6.83,45.68-18.96,66.88-4.92,8.6-25.61,43.61-68.05,61.1-7.26,2.99-14.23,5.08-20.68,6.55-3.71,.85-7.24,1.49-10.53,1.97-4.39,.64-8.37,1-11.85,1.19,1.82,11.57,3.5,29.8,0,51.38-6.3,38.86-25.93,59.37-15.28,70.82,8.17,8.78,29.62,10.18,48.61,29.16,18.05,18.05,22.22,37.5,13.89,45.83-7.72,7.72-16.94,10.79-31.68,13.01h-.03c-5.3,.81-11.35,1.5-18.29,2.26-19.64,2.17-35.57,1.67-38.88,1.39-35.29-2.97-116.61-105.65-148.57-250.62-7.97-36.12-12.86-74.85-13.22-115.33-.1-10.75,.13-21.62,.69-32.61,1.28-24.51,4.85-60.19,15.78-103.28,5.99-23.61,14.18-49.44,25.41-76.88,5.8-14.16,12.43-28.77,19.98-43.72,.29-.6,.6-1.19,.9-1.79,5.1-10.03,10.61-20.19,16.6-30.48,4.35-7.5,8.93-15.07,13.76-22.69,5.01-7.9,10.3-15.89,15.89-23.9,62.52,23.72,125.04,47.47,187.56,71.19,.72,.28,1.44,.56,2.17,.83,.18,.06,.35,.13,.53,.19l-.21,.75c-5.17,18.91-10.37,46.3-7.87,78.48,.1,1.37,.22,2.78,.36,4.18,.22,2.26,.47,4.55,.78,6.86,4.07,31.33,12.68,42.97,22.22,72.21,1.72,5.28,3.92,12.01,6.21,19.86,.62,2.14,1.25,4.35,1.87,6.65,4.62,16.89,9.22,37.91,10.73,60.51,.61,9.14,.72,18.54,.14,28.02Z" />
        <g>
            <path class="cls-3"
                d="M464.71,1443.39c-5.3,.81-11.35,1.5-18.29,2.26-19.64,2.17-35.57,1.67-38.88,1.39-35.29-2.97-116.61-105.65-148.57-250.62-7.97-36.12-12.86-74.85-13.22-115.33-.1-10.75,.13-21.62,.69-32.61,1.28-24.51,4.85-60.19,15.78-103.28,5.99-23.61,14.18-49.44,25.41-76.88,5.8-14.16,12.43-28.77,19.98-43.72,.29-.6,.6-1.19,.9-1.79,5.1-10.03,10.61-20.19,16.6-30.48,4.35-7.5,8.93-15.07,13.76-22.69,1.12,.36,2.26,.74,3.39,1.1-60.34,169.31-77.77,276.36-68.05,376.34,9.18,94.47,86.1,256.91,126.37,279.13,21.46,11.85,43.86,16.26,64.12,17.18Z" />
            <path class="cls-3"
                d="M568.38,1006.94c-25.17-33.64-62.13-54.95-125.16-76.69-40.27-13.89-56.94-16.66-101.05-24.31-21.44-3.72-37.91-24.61-54.54-37.62,5.8-14.16,12.43-28.77,19.98-43.72,.29-.6,.6-1.19,.9-1.79,5.1-10.03,10.61-20.19,16.6-30.48,44.94,.67,113.61,7.55,217.21,24.59,.67,.11,1.33,.22,2,.33,.06,.17,.11,.33,.17,.5,.11,.32,.22,.62,.32,.94-5.17,18.91-10.37,46.3-7.87,78.48,.1,1.37,.22,2.78,.36,4.18,.22,2.26,.47,4.55,.78,6.86,4.07,31.33,12.68,42.97,22.22,72.21,1.72,5.28,3.92,12.01,6.21,19.86,.62,2.14,1.25,4.35,1.87,6.65Z" />
            <g>
                <g>
                    <path class="cls-1"
                        d="M442.05,548.19c-.61,9.82-3.74,19.34-9.01,27.61-5.61,8.79-13.64,16.16-23.69,21-.25,.14-.5,.25-.76,.37l-73.2,33.98c-16.53,7.67-34.8,6.9-49.97-.54-10.6-5.18-19.68-13.62-25.59-24.71-.53-.96-1.01-1.93-1.47-2.93l-7.3-15.75c-18.04-38.84-1.17-84.95,37.68-102.99l37.75-17.53c38.84-18.04,84.96-1.17,102.99,37.68l6.64,14.29,.68,1.46c4.22,9.08,5.89,18.71,5.28,28.05Z" />
                    <path class="cls-2"
                        d="M389.89,587.7l-49.51,22.98c-19.64,9.11-42.97,.58-52.08-19.07l-4.94-10.64c-.33-.72-.65-1.44-.94-2.17-10.61-25.8,.87-55.62,26.41-67.48l25.52-11.85c24.59-11.42,53.49-2.15,67.09,20.64,.93,1.54,1.78,3.17,2.56,4.83l4.94,10.65c9.12,19.65,.58,42.97-19.05,52.09Z" />
                </g>
                <g>
                    <path class="cls-1"
                        d="M739.72,745.16l-9,5.04-6.14,3.44c-12.08,6.78-25.55,8.76-38.22,6.55-16.61-2.86-31.84-12.92-40.73-28.77l-39.47-70.41c-10.94-19.53-9.39-42.66,2.1-60.17,4.93-7.55,11.72-14.05,20.14-18.78l15.14-8.49c.72-.4,1.46-.81,2.19-1.18,37-19.23,82.82-5.74,103.36,30.9l20.36,36.3c20.94,37.36,7.62,84.61-29.73,105.56Z" />
                    <path class="cls-2"
                        d="M726.49,714.54c-2.79,2.5-5.9,4.72-9.3,6.64l-10.23,5.74c-18.89,10.6-42.8,3.86-53.38-15.03l-26.69-47.61c-10.6-18.89-3.86-42.8,15.03-53.38l10.25-5.75c5.87-3.29,12.12-5.33,18.41-6.19,20.76-2.89,42.09,6.92,52.97,26.3l13.76,24.54c12.25,21.86,7.15,48.73-10.8,64.74Z" />
                </g>
            </g>
            <path class="cls-3"
                d="M672.47,783.7c-.64,5.26-1.53,10.54-2.71,15.82-.97,4.44-2.15,8.89-3.53,13.32l-8.5,27.37c-1.49,4.79-3.24,9.42-5.24,13.87-22.34,49.86-75.38,78.7-129.1,70.77-6.19-.9-12.4-2.31-18.57-4.22l-120.87-37.57-40.63-12.62-13.62-4.24c-7.97-2.47-15.5-5.69-22.54-9.55-4.71-2.57-9.19-5.43-13.44-8.55-38.16-27.96-57.62-76.55-47.15-124.47,.61-2.82,1.32-5.64,2.17-8.44,2.99,6.54,6.08,13.4,9.3,20.46l5.04-45.52c.03-.1,.07-.21,.1-.31l8.51-27.37c1.78-5.72,3.85-11.28,6.18-16.66,.89-2.07,1.83-4.1,2.81-6.11h.01c2.17-3.07,4.44-6.04,6.8-8.92,27.61-33.59,67.73-54.91,111-58.98,9.76-.93,19.68-.97,29.65-.08,5.3,.47,10.61,1.21,15.91,2.22,6.07,1.14,12.12,2.65,18.16,4.53l73.09,22.71,23.41,7.28c12.75,3.96,24.66,9.35,35.63,15.93,8.62,5.15,16.65,11.05,24.04,17.6,32.59,28.8,52.58,69.8,54.98,113.47,.51,9.33,.24,18.8-.92,28.29Z" />
            <path class="cls-1"
                d="M687.05,753.27c-.18,2.31-.42,4.62-.69,6.93-.64,5.26-1.53,10.54-2.71,15.82-.97,4.44-2.15,8.89-3.53,13.32l-3.87,12.48-4.62,14.89c-4.31,13.86-10.85,26.41-19.12,37.37-26.48,35.09-70.62,53.85-115.21,47.27-1.19-.18-2.4-.36-3.6-.58-1.17-.21-2.33-.43-3.5-.67-3.83-.81-7.65-1.79-11.47-2.97l-120.87-37.56-54.26-16.86c-7.97-2.47-15.5-5.69-22.54-9.55-2.21-1.21-4.36-2.47-6.46-3.81-2.39-1.5-4.72-3.08-6.99-4.75-28.68-21.01-46.79-53.66-49.56-88.95h0s5.04-45.54,5.04-45.54c.03-.1,.07-.21,.1-.31l8.51-27.37c1.78-5.72,3.85-11.28,6.18-16.66,.89-2.07,1.83-4.1,2.81-6.11h.01c1.47-3.1,3.04-6.11,4.71-9.05,4.68-8.32,10.04-16.12,15.98-23.36,27.61-33.59,67.73-54.91,111-58.98,9.76-.93,19.68-.97,29.65-.08,5.3,.47,10.61,1.21,15.91,2.22,6.07,1.14,12.12,2.65,18.16,4.53l73.09,22.71,23.41,7.28c12.75,3.96,24.66,9.35,35.63,15.93,8.62,5.15,16.65,11.05,24.04,17.6,32.59,28.8,52.58,69.8,54.98,113.47,.39,7.05,.32,14.19-.22,21.36Z" />
            <g>
                <path class="cls-16"
                    d="M462.52,762.19c-.06,7.38,3.35,12.83,8.29,13.49,6.36,.85,11.64-6.74,11.87-7.08" />
                <path class="cls-16"
                    d="M442.28,755.87c-.06,7.38,3.35,12.83,8.29,13.49,6.36,.85,11.64-6.74,11.87-7.08" />
            </g>
            <path class="cls-20"
                d="M496.66,730.65v.02c-.25,.75-1.3,.99-2.14,.52-.77-.43-1.6-.79-2.48-1.07-6.4-2.04-13.1,1.06-14.96,6.9-.29,.9-.44,1.81-.47,2.72-.03,.76-.88,1.22-1.76,.94,0,0-.01,0-.02,0l-9.6-3.06s-.01,0-.02,0c-.88-.28-1.31-1.16-.89-1.79,.5-.76,.9-1.59,1.18-2.49,1.86-5.85-1.82-12.24-8.22-14.28-.88-.28-1.76-.46-2.64-.56-.96-.1-1.68-.91-1.44-1.66v-.02c2.4-7.54,11.99-11.28,21.3-8.31l9.6,3.06c9.31,2.96,14.97,11.55,12.58,19.09Z" />
            <g>
                <circle class="cls-20" cx="570.98" cy="713.35" r="15.97" />
                <circle class="cls-20" cx="403.11" cy="659.1" r="15.97" />
            </g>
            <path class="cls-3"
                d="M258.05,735.63c2.78,35.29,20.89,67.95,49.56,88.96,2.26,1.67,4.6,3.25,6.99,4.75,2.1,1.33,4.25,2.6,6.46,3.81,7.04,3.86,14.57,7.08,22.54,9.55l54.26,16.86c-32.32-14.89-53.76-29.77-70.52-45.58-3.25-3.04-6.32-6.12-9.24-9.26-7.35-7.8-13.87-15.87-20.28-24.27-22.89-30.05-32.09-63.76-34.73-90.34l-5.04,45.52Z" />
        </g>
        <g>
            <path class="cls-1"
                d="M344.89,894.48c-1.56,11.61-6.47,22.51-14.54,31.25-.19,.21-.39,.42-.6,.62-17,17.87-44.61,23.51-65.81,19.26-13.92-2.79-47.73-25.5-78.5-87.91-4.49-9.11-8.53-17.73-12.14-25.91t-.01-.03c-14.23-32.02-22.3-57.02-27.86-75.74-.61-2.04-1.21-4.08-1.79-6.11-10.47-36.51-16.5-69.78,2.07-74.99,10.12-2.85,14.8,9.98,14.8,9.92-.62-12.18,.61-20.97,10.54-25.01,12.57-5.11,17.08,1.85,24.5,9.98,1.69-3.15,5.85-9.47,12.75-11.03,12.21-2.74,24.91,22.44,40.45,56.4,2.99,6.54,6.08,13.4,9.3,20.46h0c5.75,12.58,11.87,25.76,18.48,38.77,9.53,18.72,17.04,33.04,38.06,54.94,4.47,4.67,9.55,9.67,15.4,15.12,6.55,8.07,10.96,16.94,13.33,25.97,2.11,8.04,2.6,16.21,1.56,24.04Z" />
            <path class="cls-2"
                d="M218.49,740.15c-.65,.97-1.36,1.87-2.18,2.69-1.87,1.97-4.18,3.49-6.86,4.4-11.1,3.78-24.23-4.26-29.37-17.98-2.99-7.99-2.6-16.14,.46-22.29,1.24-2.53,2.93-4.72,5.03-6.42,.9-.75,1.87-1.4,2.92-1.94,.76-.4,1.57-.74,2.4-1.03,.37-.12,.76-.25,1.15-.33,10.83-2.89,23.28,5.08,28.22,18.32,3.37,9.03,2.43,18.25-1.76,24.58Z" />
        </g>
        <path class="cls-3"
            d="M329.77,926.27s-.01,.06-.01,.08c-17,17.87-44.61,23.51-65.81,19.26-13.92-2.79-47.73-25.5-78.5-87.91-4.49-9.11-8.53-17.73-12.14-25.91t-.01-.03c-14.23-32.02-22.3-57.02-27.86-75.74-.61-2.04-1.21-4.08-1.79-6.11,.01,0,.03-.01,.04-.01,11.11,26.39,33.33,94.43,93.04,141.65,32.19,25.46,68.05,33.33,93.04,34.72Z" />
        <path class="cls-4" d="M329.76,926.35c.21-.21,.4-.42,.6-.62,8.05-8.71-2.08,12.04-.6,.62Z" />
        <path class="cls-19"
            d="M710.45,831.77c-1.79,8.93,.61,16.61,2.8,21.35-5.89,.56-11.5-1-15.59-4.81-4.91-4.59-6.54-11.43-5.12-18.4,.68-2.04,1.38-4.1,2.06-6.14,1.45-3.1,3.53-6.09,6.19-8.77,8.44-8.54,20.25-11.38,28.95-7.71-9.97,5.04-17.19,13.98-19.3,24.48Z" />
        <path class="cls-19"
            d="M216.31,742.84c-1.87,1.97-4.18,3.49-6.86,4.4-11.1,3.78-24.23-4.26-29.37-17.98-2.99-7.99-2.6-16.14,.46-22.29,1.24-2.53,2.93-4.72,5.03-6.42,.9-.75,1.87-1.4,2.92-1.94,.76-.4,1.57-.74,2.4-1.03,.37-.12,.76-.25,1.15-.33-6.08,8.97-6.72,20.65-1.56,30.25,5.12,9.5,15.1,15.37,25.83,15.35Z" />
    </g>
    <g>
        <g>
            <path class="cls-20"
                d="M1160.44,1024.21c15.99-18.59,39.68-44.56,78.17-76.35,12.72-10.5,24.7-18.9,35.74-25.54,18.65-11.27,34.65-17.55,47.15-20.63,11.29-2.79,19.75-2.97,24.76-1.82,4.89,1.11,9.87,2.85,14.73,5.17,16.42,7.76,31.57,21.94,37.69,40.21,7.25,21.67,.63,45.94-17.16,62.54-1.17,1.1-2.39,2.16-3.65,3.18-3.85,3.1-8.13,5.88-12.83,8.24-6.45,2.21-12.26,4.33-17.55,6.41-9.3,3.65-16.96,7.15-23.61,10.62-14.86,7.8-24.66,15.57-36.32,24.95-27.72,22.34-53.25,46.77-73.23,62.51-1.83,1.44-3.6,2.81-5.34,4.09-14.04,10.43-24.86,15.52-31.09,10.86-2.6-1.95-4.27-4.6-5.33-7.22-1.23-3.07-1.65-6.13-1.78-8.05-10.09,4.38-17.06,8.88-26.42-.94-7.41-7.76-4.93-16.27,.62-27.12-.43,.41-9.68,9.54-17.54,2.97-15.63-13.07,6.57-43.39,32.99-74.09Z" />
            <path class="cls-2"
                d="M1181.08,1062.82c5.39-5.44,12.14-8.57,18.58-9.17,5.89-.56,11.5,1,15.59,4.81,4.91,4.59,6.54,11.43,5.12,18.4-.42,2.06-1.12,4.12-2.06,6.14-1.45,3.1-3.53,6.09-6.19,8.77-8.44,8.54-20.25,11.38-28.95,7.71-1.92-.79-3.67-1.92-5.22-3.35-8.57-8-7.15-22.92,3.14-33.32Z" />
        </g>
        <path class="cls-20"
            d="M1637.98,713.18c29.3-6,53.65-6.42,70.82-5.55,27.89,1.4,46.91,20.28,48.61,54.16,.36,7.3,.68,13.83,.87,19.64,.69,20.78-.25,32.45-6.43,38.69-3.56,3.6-9.83,7.71-37.5,8.33-17.18,.39-41.54-.58-70.82-6.94-1.24-24.07-2.47-48.15-3.71-72.21-.61-12.04-1.24-24.07-1.85-36.11Z" />
        <path class="cls-18"
            d="M1637.98,713.18c29.3-6,53.65-6.42,70.82-5.55,27.89,1.4,46.91,20.28,48.61,54.16,.36,7.3,.68,13.83,.87,19.64-9.72-8.17-22.9-17.08-39.76-23.8-32.55-12.97-62.1-11.04-78.7-8.33-.61-12.04-1.24-24.07-1.85-36.11Z" />
        <path class="cls-20"
            d="M1203.81,610.08c5.94-12.69,17.11-18.6,39.41-29.55,16.71-8.21,30.98-12.86,34.01-13.68,14.98-4.03,45.69,7.85,81.77,33.59,6.72,4.79,13.64,10.08,20.66,15.83,4.24,3.46,8.51,7.08,12.8,10.87,.69,.61,1.4,1.24,2.1,1.87,15.47,13.82,31.29,29.77,46.77,47.74,4.61,5.35,9.18,10.87,13.72,16.57,8.93,11.23,17.68,23.15,26.11,35.72,7.18,10.72,14.14,21.91,20.78,33.57,4.19,7.35,8.26,14.89,12.18,22.61-19.22,31.73-51.51,54.79-89.66,61.37-10.75,1.85-20.29,2.06-28.64,1.17-8.97-.94-16.55-3.14-22.8-5.93-2.85-1.26-5.4-2.64-7.69-4.08-5.19-3.25-8.96-6.78-11.3-9.83-.11-.14-.22-.28-.31-.42-2.79-3.76-3.39-6.72-1.81-7.39-5.74-.82-11.96-3.57-18.26-8.8-4.18-3.46-8.42-8.01-12.54-13.82-2.32-3.24-4.61-6.85-6.85-10.89-1.67-2.99-3.29-6.19-4.89-9.64-6.35-13.64-12.19-31.01-17.03-52.77-8.03-36.22,3.96-60.94-9.14-67.66-10.05-5.18-29.51,.46-52.42-10.28-21.78-10.22-31.7-26.12-26.98-36.18Z" />
        <path class="cls-3" d="M1471.07,694.61c-.11-.12-.21-.25-.32-.37,.71,.12,.9,.24,.32,.37Z" />
        <path class="cls-18"
            d="M1321.11,797.49c12.47-63.99,41.63-83.43,58.3-102.88,12.55-14.65,14.71-45.2,15.15-65.59,15.47,13.82,31.29,29.77,46.77,47.74,4.61,5.35,9.18,10.87,13.72,16.57,8.93,11.23,17.68,23.15,26.11,35.72,7.18,10.72,14.14,21.91,20.78,33.57-.44,.39-.89,.76-1.33,1.15-45.06,39.18-79.06,65.95-104.78,83.99-3.36,2.37-6.58,4.58-9.67,6.65-5.19-3.25-8.96-6.78-11.3-9.83-.75-.97-1.36-1.9-1.83-2.75-1.42-2.61-19.03-14.21-19.3-14.33-2.79-3.76-3.39-6.72-1.81-7.39-5.74-.82-11.96-3.57-18.26-8.8-4.18-3.46-8.42-8.01-12.54-13.82Z" />
        <path class="cls-20"
            d="M1333.65,811.3c1.42-22.59,6.83-45.68,18.96-66.88,4.92-8.6,25.61-43.61,68.05-61.1,7.26-2.99,14.23-5.08,20.68-6.55,3.71-.85,7.24-1.49,10.53-1.97,4.39-.64,8.37-1,11.85-1.19-1.82-11.57-3.5-29.8,0-51.38,6.3-38.86,25.93-59.37,15.28-70.82-8.17-8.78-29.62-10.18-48.61-29.16-18.05-18.05-22.22-37.5-13.89-45.83,7.72-7.72,16.94-10.79,31.68-13.01h.03c5.3-.81,11.35-1.5,18.29-2.26,19.64-2.17,35.57-1.67,38.88-1.39,35.29,2.97,116.61,105.65,148.57,250.62,7.97,36.12,12.86,74.85,13.22,115.33,.1,10.75-.13,21.62-.69,32.61-1.28,24.51-4.85,60.19-15.78,103.28-5.99,23.61-14.18,49.44-25.41,76.88-5.8,14.16-12.43,28.77-19.98,43.72-.29,.6-.6,1.19-.9,1.79-5.1,10.03-10.61,20.19-16.6,30.48-4.35,7.5-8.93,15.07-13.76,22.69-5.01,7.9-10.3,15.89-15.89,23.9-62.52-23.72-125.04-47.47-187.56-71.19-.72-.28-1.44-.56-2.17-.83-.18-.06-.35-.13-.53-.19l.21-.75c5.17-18.91,10.37-46.3,7.87-78.48-.1-1.37-.22-2.78-.36-4.18-.22-2.26-.47-4.55-.78-6.86-4.07-31.33-12.68-42.97-22.22-72.21-1.72-5.28-3.92-12.01-6.21-19.86-.62-2.14-1.25-4.35-1.87-6.65-4.62-16.89-9.22-37.91-10.73-60.51-.61-9.14-.72-18.54-.14-28.02Z" />
        <g>
            <path class="cls-18"
                d="M1448.19,463.39c5.3-.81,11.35-1.5,18.29-2.26,19.64-2.17,35.57-1.67,38.88-1.39,35.29,2.97,116.61,105.65,148.57,250.62,7.97,36.12,12.86,74.85,13.22,115.33,.1,10.75-.13,21.62-.69,32.61-1.28,24.51-4.85,60.19-15.78,103.28-5.99,23.61-14.18,49.44-25.41,76.88-5.8,14.16-12.43,28.77-19.98,43.72-.29,.6-.6,1.19-.9,1.79-5.1,10.03-10.61,20.19-16.6,30.48-4.35,7.5-8.93,15.07-13.76,22.69-1.12-.36-2.26-.74-3.39-1.1,60.34-169.31,77.77-276.36,68.05-376.34-9.18-94.47-86.1-256.91-126.37-279.13-21.46-11.85-43.86-16.26-64.12-17.18Z" />
            <path class="cls-18"
                d="M1344.52,899.83c25.17,33.64,62.13,54.95,125.16,76.69,40.27,13.89,56.94,16.66,101.05,24.31,21.44,3.72,37.91,24.61,54.54,37.62-5.8,14.16-12.43,28.77-19.98,43.72-.29,.6-.6,1.19-.9,1.79-5.1,10.03-10.61,20.19-16.6,30.48-44.94-.67-113.61-7.55-217.21-24.59-.67-.11-1.33-.22-2-.33-.06-.17-.11-.33-.17-.5-.11-.32-.22-.62-.32-.94,5.17-18.91,10.37-46.3,7.87-78.48-.1-1.37-.22-2.78-.36-4.18-.22-2.26-.47-4.55-.78-6.86-4.07-31.33-12.68-42.97-22.22-72.21-1.72-5.28-3.92-12.01-6.21-19.86-.62-2.14-1.25-4.35-1.87-6.65Z" />
            <g>
                <g>
                    <path class="cls-20"
                        d="M1470.85,1358.58c.61-9.82,3.74-19.34,9.01-27.61,5.61-8.79,13.64-16.16,23.69-21,.25-.14,.5-.25,.76-.37l73.2-33.98c16.53-7.67,34.8-6.9,49.97,.54,10.6,5.18,19.68,13.62,25.59,24.71,.53,.96,1.01,1.93,1.47,2.93l7.3,15.75c18.04,38.84,1.17,84.95-37.68,102.99l-37.75,17.53c-38.84,18.04-84.96,1.17-102.99-37.68l-6.64-14.29-.68-1.46c-4.22-9.08-5.89-18.71-5.28-28.05Z" />
                    <path class="cls-2"
                        d="M1523.01,1319.08l49.51-22.98c19.64-9.11,42.97-.58,52.08,19.07l4.94,10.64c.33,.72,.65,1.44,.94,2.17,10.61,25.8-.87,55.62-26.41,67.48l-25.52,11.85c-24.59,11.42-53.49,2.15-67.09-20.64-.93-1.54-1.78-3.17-2.56-4.83l-4.94-10.65c-9.12-19.65-.58-42.97,19.05-52.09Z" />
                </g>
                <g>
                    <path class="cls-20"
                        d="M1173.18,1161.61l9-5.04,6.14-3.44c12.08-6.78,25.55-8.76,38.22-6.55,16.61,2.86,31.84,12.92,40.73,28.77l39.47,70.41c10.94,19.53,9.39,42.66-2.1,60.17-4.93,7.55-11.72,14.05-20.14,18.78l-15.14,8.49c-.72,.4-1.46,.81-2.19,1.18-37,19.23-82.82,5.74-103.36-30.9l-20.36-36.3c-20.94-37.36-7.62-84.61,29.73-105.56Z" />
                    <path class="cls-2"
                        d="M1186.41,1192.23c2.79-2.5,5.9-4.72,9.3-6.64l10.23-5.74c18.89-10.6,42.8-3.86,53.38,15.03l26.69,47.61c10.6,18.89,3.86,42.8-15.03,53.38l-10.25,5.75c-5.87,3.29-12.12,5.33-18.41,6.19-20.76,2.89-42.09-6.92-52.97-26.3l-13.76-24.54c-12.25-21.86-7.15-48.73,10.8-64.74Z" />
                </g>
            </g>
            <path class="cls-18"
                d="M1240.43,1123.07c.64-5.26,1.53-10.54,2.71-15.82,.97-4.44,2.15-8.89,3.53-13.32l8.5-27.37c1.49-4.79,3.24-9.42,5.24-13.87,22.34-49.86,75.38-78.7,129.1-70.77,6.19,.9,12.4,2.31,18.57,4.22l120.87,37.57,40.63,12.62,13.62,4.24c7.97,2.47,15.5,5.69,22.54,9.55,4.71,2.57,9.19,5.43,13.44,8.55,38.16,27.96,57.62,76.55,47.15,124.47-.61,2.82-1.32,5.64-2.17,8.44-2.99-6.54-6.08-13.4-9.3-20.46l-5.04,45.52c-.03,.1-.07,.21-.1,.31l-8.51,27.37c-1.78,5.72-3.85,11.28-6.18,16.66-.89,2.07-1.83,4.1-2.81,6.11h-.01c-2.17,3.07-4.44,6.04-6.8,8.92-27.61,33.59-67.73,54.91-111,58.98-9.76,.93-19.68,.97-29.65,.08-5.3-.47-10.61-1.21-15.91-2.22-6.07-1.14-12.12-2.65-18.16-4.53l-73.09-22.71-23.41-7.28c-12.75-3.96-24.66-9.35-35.63-15.93-8.62-5.15-16.65-11.05-24.04-17.6-32.59-28.8-52.58-69.8-54.98-113.47-.51-9.33-.24-18.8,.92-28.29Z" />
            <path class="cls-20"
                d="M1225.84,1153.5c.18-2.31,.42-4.62,.69-6.93,.64-5.26,1.53-10.54,2.71-15.82,.97-4.44,2.15-8.89,3.53-13.32l3.87-12.48,4.62-14.89c4.31-13.86,10.85-26.41,19.12-37.37,26.48-35.09,70.62-53.85,115.21-47.27,1.19,.18,2.4,.36,3.6,.58,1.17,.21,2.33,.43,3.5,.67,3.83,.81,7.65,1.79,11.47,2.97l120.87,37.56,54.26,16.86c7.97,2.47,15.5,5.69,22.54,9.55,2.21,1.21,4.36,2.47,6.46,3.81,2.39,1.5,4.72,3.08,6.99,4.75,28.68,21.01,46.79,53.66,49.56,88.95h0s-5.04,45.54-5.04,45.54c-.03,.1-.07,.21-.1,.31l-8.51,27.37c-1.78,5.72-3.85,11.28-6.18,16.66-.89,2.07-1.83,4.1-2.81,6.11h-.01c-1.47,3.1-3.04,6.11-4.71,9.05-4.68,8.32-10.04,16.12-15.98,23.36-27.61,33.59-67.73,54.91-111,58.98-9.76,.93-19.68,.97-29.65,.08-5.3-.47-10.61-1.21-15.91-2.22-6.07-1.14-12.12-2.65-18.16-4.53l-73.09-22.71-23.41-7.28c-12.75-3.96-24.66-9.35-35.63-15.93-8.62-5.15-16.65-11.05-24.04-17.6-32.59-28.8-52.58-69.8-54.98-113.47-.39-7.05-.32-14.19,.22-21.36Z" />
            <g>
                <path class="cls-15"
                    d="M1450.38,1144.58c.06-7.38-3.35-12.83-8.29-13.49-6.36-.85-11.64,6.74-11.87,7.08" />
                <path class="cls-15"
                    d="M1470.62,1150.9c.06-7.38-3.35-12.83-8.29-13.49-6.36-.85-11.64,6.74-11.87,7.08" />
            </g>
            <path class="cls-17"
                d="M1416.24,1176.12v-.02c.25-.75,1.3-.99,2.14-.52,.77,.43,1.6,.79,2.48,1.07,6.4,2.04,13.1-1.06,14.96-6.9,.29-.9,.44-1.81,.47-2.72,.03-.76,.88-1.22,1.76-.94,0,0,.01,0,.02,0l9.6,3.06s.01,0,.02,0c.88,.28,1.31,1.16,.89,1.79-.5,.76-.9,1.59-1.18,2.49-1.86,5.85,1.82,12.24,8.22,14.28,.88,.28,1.76,.46,2.64,.56,.96,.1,1.68,.91,1.44,1.66v.02c-2.4,7.54-11.99,11.28-21.3,8.31l-9.6-3.06c-9.31-2.96-14.97-11.55-12.58-19.09Z" />
            <g>
                <circle class="cls-17" cx="1341.92" cy="1193.42" r="15.97" />
                <circle class="cls-17" cx="1509.79" cy="1247.67" r="15.97" />
            </g>
            <path class="cls-18"
                d="M1654.85,1171.14c-2.78-35.29-20.89-67.95-49.56-88.96-2.26-1.67-4.6-3.25-6.99-4.75-2.1-1.33-4.25-2.6-6.46-3.81-7.04-3.86-14.57-7.08-22.54-9.55l-54.26-16.86c32.32,14.89,53.76,29.77,70.52,45.58,3.25,3.04,6.32,6.12,9.24,9.26,7.35,7.8,13.87,15.87,20.28,24.27,22.89,30.05,32.09,63.76,34.73,90.34l5.04-45.52Z" />
        </g>
        <g>
            <path class="cls-20"
                d="M1568.01,1012.29c1.56-11.61,6.47-22.51,14.54-31.25,.19-.21,.39-.42,.6-.62,17-17.87,44.61-23.51,65.81-19.26,13.92,2.79,47.73,25.5,78.5,87.91,4.49,9.11,8.53,17.73,12.14,25.91t.01,.03c14.23,32.02,22.3,57.02,27.86,75.74,.61,2.04,1.21,4.08,1.79,6.11,10.47,36.51,16.5,69.78-2.07,74.99-10.12,2.85-14.8-9.98-14.8-9.92,.62,12.18-.61,20.97-10.54,25.01-12.57,5.11-17.08-1.85-24.5-9.98-1.69,3.15-5.85,9.47-12.75,11.03-12.21,2.74-24.91-22.44-40.45-56.4-2.99-6.54-6.08-13.4-9.3-20.46h0c-5.75-12.58-11.87-25.76-18.48-38.77-9.53-18.72-17.04-33.04-38.06-54.94-4.47-4.67-9.55-9.67-15.4-15.12-6.55-8.07-10.96-16.94-13.33-25.97-2.11-8.04-2.6-16.21-1.56-24.04Z" />
            <path class="cls-2"
                d="M1694.41,1166.62c.65-.97,1.36-1.87,2.18-2.69,1.87-1.97,4.18-3.49,6.86-4.4,11.1-3.78,24.23,4.26,29.37,17.98,2.99,7.99,2.6,16.14-.46,22.29-1.24,2.53-2.93,4.72-5.03,6.42-.9,.75-1.87,1.4-2.92,1.94-.76,.4-1.57,.74-2.4,1.03-.37,.12-.76,.25-1.15,.33-10.83,2.89-23.28-5.08-28.22-18.32-3.37-9.03-2.43-18.25,1.76-24.58Z" />
        </g>
        <path class="cls-18"
            d="M1583.13,980.5s.01-.06,.01-.08c17-17.87,44.61-23.51,65.81-19.26,13.92,2.79,47.73,25.5,78.5,87.91,4.49,9.11,8.53,17.73,12.14,25.91t.01,.03c14.23,32.02,22.3,57.02,27.86,75.74,.61,2.04,1.21,4.08,1.79,6.11-.01,0-.03,.01-.04,.01-11.11-26.39-33.33-94.43-93.04-141.65-32.19-25.46-68.05-33.33-93.04-34.72Z" />
        <path class="cls-19"
            d="M1202.45,1075c1.79-8.93-.61-16.61-2.8-21.35,5.89-.56,11.5,1,15.59,4.81,4.91,4.59,6.54,11.43,5.12,18.4-.68,2.04-1.38,4.1-2.06,6.14-1.45,3.1-3.53,6.09-6.19,8.77-8.44,8.54-20.25,11.38-28.95,7.71,9.97-5.04,17.19-13.98,19.3-24.48Z" />
        <path class="cls-19"
            d="M1696.59,1163.93c1.87-1.97,4.18-3.49,6.86-4.4,11.1-3.78,24.23,4.26,29.37,17.98,2.99,7.99,2.6,16.14-.46,22.29-1.24,2.53-2.93,4.72-5.03,6.42-.9,.75-1.87,1.4-2.92,1.94-.76,.4-1.57,.74-2.4,1.03-.37,.12-.76,.25-1.15,.33,6.08-8.97,6.72-20.65,1.56-30.25-5.12-9.5-15.1-15.37-25.83-15.35Z" />
    </g>
    <g>
        <polygon class="cls-13" points="954.27 1781.5 954.27 1574.13 1130.54 1494.63 954.27 1781.5" />
        <polygon class="cls-8" points="778.01 1494.63 954.27 1574.13 954.27 1781.5 778.01 1494.63" />
        <polygon class="cls-5" points="778.01 1494.63 954.27 1394.4 954.27 1574.13 778.01 1494.63" />
        <polygon class="cls-11" points="954.27 1574.13 954.27 1394.4 1130.54 1494.63 954.27 1574.13" />
        <polygon class="cls-9" points="779.16 1461.22 954.27 1216.98 954.27 1359.84 779.16 1461.22" />
        <polygon class="cls-12" points="954.27 1359.84 954.27 1216.98 1129.39 1461.22 954.27 1359.84" />
    </g>
    <g>
        <polygon class="cls-7" points="954.27 138.5 954.27 345.87 778.01 425.37 954.27 138.5" />
        <polygon class="cls-14" points="1130.54 425.37 954.27 345.87 954.27 138.5 1130.54 425.37" />
        <polygon class="cls-10" points="1130.54 425.37 954.27 525.6 954.27 345.87 1130.54 425.37" />
        <polygon class="cls-6" points="954.27 345.87 954.27 525.6 778.01 425.37 954.27 345.87" />
        <polygon class="cls-10" points="1129.39 458.78 954.27 703.02 954.27 560.16 1129.39 458.78" />
        <polygon class="cls-7" points="954.27 560.16 954.27 703.02 779.16 458.78 954.27 560.16" />
    </g>
</svg>